# xmcd
#
# Track frame offsets: 
#        150
#        21102
#        44985
#        50742
#        67327
#        84030
#        99850
#        118310
#        143917
#        163270
#        184317
#        201377
#        222810
#
# Disc length: 3290 seconds
#
# Revision: 2
# Processed by: cddbd v1.5.2PL0 Copyright (c) Steve Scherf et al.
# Submitted via: ExactAudioCopy v0.99pb5
#
DISCID=cb0cd80d
DTITLE=US3 - Hand On The Torch
DYEAR=1993
DGENRE=Jazz+Funk
TTITLE0=Cantaloop (Flip Fantasia)
TTITLE1=I Got It Goin' On
TTITLE2=Different Rhythms, Different People
TTITLE3=It's Like That
TTITLE4=Just Another Brother
TTITLE5=Cruisin'
TTITLE6=I Go To Work
TTITLE7=Tukka Yoot's Riddim
TTITLE8=Knowledge Of Self
TTITLE9=Lazy Day
TTITLE10=Eleven Long Years
TTITLE11=Make Tracks
TTITLE12=The Darkside
EXTD=
EXTT0=
EXTT1=
EXTT2=
EXTT3=
EXTT4=
EXTT5=
EXTT6=
EXTT7=
EXTT8=
EXTT9=
EXTT10=
EXTT11=
EXTT12=
PLAYORDER=
